# Exported from Wings 3D 2.1.7
mtllib BaseballBat_A__2.mtl
o Cylinder1
#50 vertices, 96 faces
v 0.81897473 7.1736508e-17 4.93587889
v 0.51062239 -0.64030023 4.93587889
v -0.18223902 -0.79844132 4.93587889
v -0.73787074 -0.35533982 4.93587889
v -0.73787074 0.35533982 4.93587889
v -0.18223902 0.79844132 4.93587889
v 0.51062239 0.64030023 4.93587889
v 0.98800000 -6.0212066e-17 -5.32334400
v 0.61600792 -0.77244950 -5.32334400
v -0.21985068 -0.96322878 -5.32334400
v -0.89015724 -0.42867713 -5.32334400
v -0.89015724 0.42867713 -5.32334400
v -0.21985068 0.96322878 -5.32334400
v 0.61600792 0.77244950 -5.32334400
v 0.69752800 -7.3016246e-17 -5.81596500
v 0.43490159 -0.54534935 -5.81596500
v -0.15521458 -0.68003952 -5.81596500
v -0.62845101 -0.30264606 -5.81596500
v -0.62845101 0.30264606 -5.81596500
v -0.15521458 0.68003952 -5.81596500
v 0.43490159 0.54534935 -5.81596500
v 0.28947654 -0.36299211 9.67309115
v 0.46428433 7.3552454e-17 9.67309115
v 0.28947654 0.36299211 9.67309115
v -0.10331298 0.45264375 9.67309115
v -0.41830573 0.20144542 9.67309115
v -0.41830573 -0.20144542 9.67309115
v -0.10331298 -0.45264375 9.67309115
v 0.28947654 -0.36299211 16.88803521
v 0.46428433 7.3552454e-17 16.88803521
v 0.28947654 0.36299211 16.88803521
v -0.10331298 0.45264375 16.88803521
v -0.41830573 0.20144542 16.88803521
v -0.41830573 -0.20144542 16.88803521
v -0.10331298 -0.45264375 16.88803521
v 0.45737294 -0.57352753 17.14597211
v 0.73356924 7.9416914e-17 17.14597211
v 0.45737294 0.57352753 17.14597211
v -0.16323451 0.71517713 17.14597211
v -0.66092305 0.31828377 17.14597211
v -0.66092305 -0.31828377 17.14597211
v -0.16323451 -0.71517713 17.14597211
v 0.41803887 -0.52420416 17.56161650
v 0.67048229 8.0770989e-17 17.56161650
v 0.41803887 0.52420416 17.56161650
v -0.14919634 0.65367190 17.56161650
v -0.60408367 0.29091136 17.56161650
v -0.60408367 -0.29091136 17.56161650
v -0.14919634 -0.65367190 17.56161650
v 0.0000000e+0 0.0000000e+0 17.75639124
vn 0.99640639 -6.8633769e-2 4.9635700e-2
vn 0.62284137 -0.78101837 4.5595336e-2
vn -0.22228951 -0.97391398 4.5595336e-2
vn -0.90003185 -0.43343250 4.5595336e-2
vn -0.92779838 0.37078461 4.1339259e-2
vn -0.22212066 0.97395250 4.5595335e-2
vn 0.62297676 0.78091038 4.5595335e-2
vn 0.95244818 7.0210552e-2 -0.29650117
vn 0.55840277 -0.80010669 -0.21912470
vn -0.21494722 -0.94174531 -0.25867635
vn -0.87030354 -0.41911609 -0.25867635
vn -0.87030354 0.41911609 -0.25867635
vn -0.28038989 0.91294500 -0.29650117
vn 0.53048302 0.82308101 -0.20279401
vn 0.37463403 2.8751018e-16 -0.92717277
vn 0.52401318 -0.47696537 -0.70563037
vn -0.14119677 -0.61862348 -0.77289615
vn -0.33753360 -0.16254761 -0.92717277
vn -0.57169406 0.27531335 -0.77289615
vn -0.14119677 0.61862348 -0.77289615
vn 0.34075957 0.42729899 -0.83743566
vn 0.62305434 -0.78128543 3.7368006e-2
vn 0.99930157 -1.5409896e-17 3.7368006e-2
vn 0.67526938 0.73687864 3.1955207e-2
vn -0.12798666 0.99077110 4.4632246e-2
vn -0.86866513 0.49436804 3.1955207e-2
vn -0.86823209 -0.49432581 4.2603302e-2
vn -0.22236552 -0.97424700 3.7368006e-2
vn 0.53627821 -0.67247161 0.51008589
vn 0.73229174 9.5615676e-17 0.68099104
vn 0.53627821 0.67247161 0.51008589
vn -0.16295024 0.71393166 0.68099104
vn -0.68197392 0.44785502 0.57821920
vn -0.77494447 -0.37319359 0.51008589
vn -0.16295024 -0.71393166 0.68099104
vn -1.1290116e-15 -1.4164721e-16 1.00000000
vn 0.62348980 -0.78183148 -3.0508205e-16
vn 0.62348980 -0.78183148 -3.0508205e-16
vn 0.51493381 -0.46870117 -0.71774813
vn 0.51493381 -0.46870117 -0.71774813
vn 0.51493381 -0.46870117 -0.71774813
vn 1.00000000 -1.5403182e-17 -4.9280266e-16
vn 1.00000000 -3.0806365e-17 -4.9280266e-16
vn 0.68750131 0.11036106 -0.71774813
vn 1.00000000 -1.5403182e-17 -4.9280266e-16
vn 1.00000000 -3.0806365e-17 -4.9280266e-16
vn 0.68750131 0.11036106 -0.71774813
vn 0.68750131 0.11036106 -0.71774813
vn 0.62348980 0.78183148 -3.0998877e-16
vn 0.62348980 0.78183148 -3.0998877e-16
vn 0.34236630 0.60631917 -0.71774813
vn 0.34236630 0.60631917 -0.71774813
vn 0.34236630 0.60631917 -0.71774813
vn -0.22252093 0.97492791 1.0597907e-16
vn -0.22252093 0.97492791 1.0597907e-16
vn -0.26057751 0.64570657 -0.71774813
vn -0.22252093 0.97492791 1.0597907e-16
vn -0.22252093 0.97492791 1.0597907e-16
vn -0.26057751 0.64570657 -0.71774813
vn -0.26057751 0.64570657 -0.71774813
vn -0.90096887 0.43388374 4.4283368e-16
vn -0.90096887 0.43388374 4.4283368e-16
vn -0.62322421 0.30012896 -0.72215940
vn -0.62322421 0.30012896 -0.72215940
vn -0.95834905 -0.28559953 4.7136606e-16
vn -0.95834905 -0.28559953 4.7136606e-16
vn -0.62322421 -0.30012896 -0.72215940
vn -0.62322421 -0.30012896 -0.72215940
vn -0.62322421 -0.30012896 -0.72215940
vn -0.62322421 -0.30012896 -0.72215940
vn -0.95834905 -0.28559953 4.7136606e-16
vn -0.22252093 -0.97492791 1.1108190e-16
vn -0.22252093 -0.97492791 1.1108190e-16
vn -4.5389355e-2 -0.69482186 -0.71774813
vn -0.22252093 -0.97492791 1.1108190e-16
vn -0.22252093 -0.97492791 1.1108190e-16
vn -4.5389355e-2 -0.69482186 -0.71774813
vn -4.5389355e-2 -0.69482186 -0.71774813
vn 0.34236630 -0.60631917 -0.71774813
vn 0.34236630 -0.60631917 -0.71774813
vn 0.61642973 -0.77297844 0.15006239
vn 0.61642973 -0.77297844 0.15006239
vn 0.34236630 -0.60631917 -0.71774813
vn 0.68750131 -0.11036106 -0.71774813
vn 0.68750131 -0.11036106 -0.71774813
vn 0.98867653 9.2222992e-17 0.15006239
vn 0.98867653 9.2222992e-17 0.15006239
vn 0.98867653 9.2222992e-17 0.15006239
vn 0.98867653 9.2222992e-17 0.15006239
vn 0.68750131 -0.11036106 -0.71774813
vn 0.51493381 0.46870117 -0.71774813
vn 0.51493381 0.46870117 -0.71774813
vn 0.61642973 0.77297844 0.15006239
vn 0.61642973 0.77297844 0.15006239
vn 0.51493381 0.46870117 -0.71774813
vn -4.5389355e-2 0.69482186 -0.71774813
vn -4.5389355e-2 0.69482186 -0.71774813
vn -0.22000122 0.96388834 0.15006239
vn -0.22000122 0.96388834 0.15006239
vn -0.22000122 0.96388834 0.15006239
vn -0.22000122 0.96388834 0.15006239
vn -4.5389355e-2 0.69482186 -0.71774813
vn -0.62322421 0.30012896 -0.72215940
vn -0.62322421 0.30012896 -0.72215940
vn -0.94776532 0.28244545 0.14820748
vn -0.62322421 0.30012896 -0.72215940
vn -0.62322421 0.30012896 -0.72215940
vn -0.94776532 0.28244545 0.14820748
vn -0.94776532 0.28244545 0.14820748
vn -0.62322421 -0.30012896 -0.72215940
vn -0.62322421 -0.30012896 -0.72215940
vn -0.89076677 -0.42897067 0.15006239
vn -0.89076677 -0.42897067 0.15006239
vn -0.26057751 -0.64570657 -0.71774813
vn -0.26057751 -0.64570657 -0.71774813
vn -0.22000122 -0.96388834 0.15006239
vn -0.22000122 -0.96388834 0.15006239
vn -0.22000122 -0.96388834 0.15006239
vn -0.22000122 -0.96388834 0.15006239
vn -0.26057751 -0.64570657 -0.71774813
g Cylinder1_default
usemtl default
s 1
f 29//41 36//83 35//77
f 30//48 37//90 29//40
f 31//53 38//95 30//47
f 32//60 39//102 31//52
f 33//63 40//106 32//59
f 34//69 40//107 33//64
f 35//78 42//120 34//70
f 36//79 29//39 37//84
f 37//85 30//44 38//91
f 38//92 31//51 39//96
f 39//97 32//56 40//103
f 40//104 34//67 41//110
f 41//111 34//68 42//114
f 42//115 35//74 36//80
s 2
f 1//1 8//8 7//7
f 1//1 9//9 8//8
f 1//1 22//22 2//2
f 2//2 9//9 1//1
f 2//2 22//22 3//3
f 3//3 9//9 2//2
f 3//3 11//11 10//10
f 3//3 27//27 4//4
f 4//4 11//11 3//3
f 4//4 27//27 5//5
f 5//5 11//11 4//4
f 5//5 13//13 12//12
f 5//5 26//26 6//6
f 6//6 13//13 5//5
f 6//6 14//14 13//13
f 6//6 25//25 7//7
f 7//7 8//8 14//14
f 7//7 14//14 6//6
f 7//7 24//24 1//1
f 8//8 21//21 14//14
f 9//9 16//16 8//8
f 10//10 9//9 3//3
f 10//10 17//17 9//9
f 11//11 17//17 10//10
f 12//12 11//11 5//5
f 12//12 19//19 11//11
f 13//13 19//19 12//12
f 14//14 21//21 13//13
f 15//15 8//8 16//16
f 15//15 18//18 21//21
f 15//15 21//21 8//8
f 16//16 9//9 17//17
f 16//16 17//17 15//15
f 17//17 11//11 18//18
f 18//18 11//11 19//19
f 18//18 15//15 17//17
f 19//19 13//13 20//20
f 19//19 21//21 18//18
f 20//20 13//13 21//21
f 20//20 21//21 19//19
f 22//22 1//1 23//23
f 22//22 35//76 28//28
f 23//23 1//1 24//24
f 23//23 30//45 22//22
f 24//24 7//7 25//25
f 24//24 30//46 23//23
f 25//25 6//6 26//26
f 25//25 32//57 24//24
f 26//26 5//5 27//27
f 26//26 32//58 25//25
f 27//27 3//3 28//28
f 27//27 34//71 26//26
f 28//28 3//3 22//22
f 28//28 35//75 27//27
f 29//37 22//22 30//42
f 29//38 35//73 22//22
f 30//43 24//24 31//49
f 31//50 24//24 32//54
f 32//55 26//26 33//61
f 33//62 26//26 34//65
f 34//66 27//27 35//72
f 36//81 43//29 42//119
f 37//88 43//29 36//82
f 38//93 45//31 37//89
f 39//100 45//31 38//94
f 40//109 47//33 39//101
f 41//112 48//34 40//108
f 42//118 48//34 41//113
f 43//29 37//86 44//30
f 43//29 50//36 49//35
f 44//30 37//87 45//31
f 44//30 50//36 43//29
f 45//31 39//98 46//32
f 45//31 50//36 44//30
f 46//32 39//99 47//33
f 46//32 50//36 45//31
f 47//33 40//105 48//34
f 47//33 50//36 46//32
f 48//34 42//116 49//35
f 48//34 50//36 47//33
f 49//35 42//117 43//29
f 49//35 50//36 48//34
