# Exported from Wings 3D 2.1.7
mtllib Brick_A__1.mtl
o Cube1
#25 vertices, 46 faces
v -0.65978865 0.43664400 -1.41812149
v -0.65978865 0.43664400 1.43120772
v 0.66615001 0.43664400 -1.41812149
v 0.70200000 -0.40451259 1.42466461
v 0.70200000 -0.40451259 -1.42466461
v 0.70200000 0.40451259 -1.42466461
v 0.70200000 0.40451259 1.42466461
v -0.66296933 -0.40451259 -1.48402800
v -0.66296933 0.40451259 -1.48402800
v 0.66296933 0.40451259 -1.48402800
v 0.66296933 -0.40451259 -1.48402800
v -0.66296933 -0.43664400 1.42466461
v -0.66296933 -0.43664400 -1.42466461
v 0.66296933 -0.43664400 -1.42466461
v 0.66296933 -0.43664400 1.42466461
v -0.70200000 -0.40451259 -1.42466461
v -0.70200000 -0.40451259 1.42466461
v -0.70200000 0.40451259 1.42466461
v -0.70200000 0.40451259 -1.42466461
v -0.66296933 0.40451259 1.48402800
v -0.66296933 -0.40451259 1.48402800
v 0.66296933 -0.40451259 1.48402800
v 0.66296933 0.40451259 1.48402800
v 0.46598008 0.43664400 1.43120772
v 0.66615001 0.43664400 1.03808611
vn -0.46119433 0.86245872 -0.20848201
vn -0.46119433 0.86245872 -0.20848201
vn 0.0000000e+0 1.00000000 0.0000000e+0
vn 0.0000000e+0 1.00000000 0.0000000e+0
vn -0.46119433 0.86245872 -0.20848201
vn -0.46119433 0.86245872 -0.20848201
vn 0.0000000e+0 1.00000000 -2.5086156e-16
vn -0.32358132 0.86409054 0.38554204
vn -0.32358132 0.86409054 0.38554204
vn 0.0000000e+0 1.00000000 -2.5086156e-16
vn -0.32358132 0.86409054 0.38554204
vn -0.32358132 0.86409054 0.38554204
vn 0.33539798 0.87920910 -0.33837783
vn 0.33539798 0.87920910 -0.33837783
vn 0.0000000e+0 1.00000000 0.0000000e+0
vn 0.33539798 0.87920910 -0.33837783
vn 0.33539798 0.87920910 -0.33837783
vn 1.00000000 0.0000000e+0 0.0000000e+0
vn 0.79409296 -0.50778065 0.33402870
vn 0.79409296 -0.50778065 0.33402870
vn 0.79409296 -0.50778065 0.33402870
vn 0.79409296 -0.50778065 0.33402870
vn 0.79409296 -0.50778065 0.33402870
vn 1.00000000 0.0000000e+0 0.0000000e+0
vn 0.76096149 -0.54897781 -0.34577590
vn 0.76096149 -0.54897781 -0.34577590
vn 0.76096149 -0.54897781 -0.34577590
vn 1.00000000 0.0000000e+0 0.0000000e+0
vn 1.00000000 0.0000000e+0 0.0000000e+0
vn 0.80295564 0.49548098 -0.33130172
vn 0.80295564 0.49548098 -0.33130172
vn 0.80295564 0.49548098 -0.33130172
vn 0.80295564 0.49548098 -0.33130172
vn 0.80295564 0.49548098 -0.33130172
vn 1.00000000 0.0000000e+0 0.0000000e+0
vn 1.00000000 0.0000000e+0 0.0000000e+0
vn 0.65836566 0.70864152 0.25373582
vn 0.65836566 0.70864152 0.25373582
vn 0.65836566 0.70864152 0.25373582
vn -0.41590923 -0.72278754 -0.55190370
vn -0.41590923 -0.72278754 -0.55190370
vn 0.0000000e+0 0.0000000e+0 -1.00000000
vn -0.41590923 -0.72278754 -0.55190370
vn -0.41590923 -0.72278754 -0.55190370
vn 0.0000000e+0 0.0000000e+0 -1.00000000
vn -0.53666476 0.62553185 -0.56630455
vn -0.53666476 0.62553185 -0.56630455
vn -0.53666476 0.62553185 -0.56630455
vn 0.0000000e+0 0.0000000e+0 -1.00000000
vn -0.53666476 0.62553185 -0.56630455
vn -0.53666476 0.62553185 -0.56630455
vn 0.0000000e+0 0.0000000e+0 -1.00000000
vn 0.55458808 0.63602255 -0.53657001
vn 0.55458808 0.63602255 -0.53657001
vn 0.55458808 0.63602255 -0.53657001
vn 0.0000000e+0 0.0000000e+0 -1.00000000
vn 0.66649530 -0.46993682 -0.57874295
vn 0.66649530 -0.46993682 -0.57874295
vn 0.66649530 -0.46993682 -0.57874295
vn 0.0000000e+0 0.0000000e+0 -1.00000000
vn 0.66649530 -0.46993682 -0.57874295
vn 0.0000000e+0 -1.00000000 0.0000000e+0
vn -0.40190221 -0.86874762 0.28939970
vn -0.40190221 -0.86874762 0.28939970
vn -0.40190221 -0.86874762 0.28939970
vn 0.0000000e+0 -1.00000000 0.0000000e+0
vn -0.40190221 -0.86874762 0.28939970
vn -0.40190221 -0.86874762 0.28939970
vn -0.43689466 -0.84512546 -0.30803573
vn -0.43689466 -0.84512546 -0.30803573
vn 0.0000000e+0 -1.00000000 0.0000000e+0
vn -0.43689466 -0.84512546 -0.30803573
vn 0.0000000e+0 -1.00000000 0.0000000e+0
vn 0.40190221 -0.86874762 -0.28939970
vn 0.40190221 -0.86874762 -0.28939970
vn 0.40190221 -0.86874762 -0.28939970
vn 0.0000000e+0 -1.00000000 0.0000000e+0
vn 0.40190221 -0.86874762 -0.28939970
vn 0.40190221 -0.86874762 -0.28939970
vn 0.0000000e+0 -1.00000000 0.0000000e+0
vn 0.43689466 -0.84512546 0.30803573
vn 0.43689466 -0.84512546 0.30803573
vn 0.43689466 -0.84512546 0.30803573
vn -1.00000000 0.0000000e+0 0.0000000e+0
vn -0.79409296 -0.50778065 -0.33402870
vn -0.79409296 -0.50778065 -0.33402870
vn -0.79409296 -0.50778065 -0.33402870
vn -0.79409296 -0.50778065 -0.33402870
vn -1.00000000 0.0000000e+0 0.0000000e+0
vn -0.79409296 -0.50778065 -0.33402870
vn -0.76096149 -0.54897781 0.34577590
vn -0.76096149 -0.54897781 0.34577590
vn -1.00000000 0.0000000e+0 0.0000000e+0
vn -0.76096149 -0.54897781 0.34577590
vn -1.00000000 0.0000000e+0 0.0000000e+0
vn -0.78603544 0.51838764 0.33678264
vn -0.78603544 0.51838764 0.33678264
vn -0.78603544 0.51838764 0.33678264
vn -1.00000000 0.0000000e+0 0.0000000e+0
vn -0.78603544 0.51838764 0.33678264
vn -0.78603544 0.51838764 0.33678264
vn -1.00000000 0.0000000e+0 0.0000000e+0
vn -0.73769818 0.58547808 -0.33617973
vn -0.73769818 0.58547808 -0.33617973
vn -0.73769818 0.58547808 -0.33617973
vn -0.55680146 0.60575189 0.56836324
vn -0.55680146 0.60575189 0.56836324
vn -0.55680146 0.60575189 0.56836324
vn 0.0000000e+0 0.0000000e+0 1.00000000
vn 0.0000000e+0 0.0000000e+0 1.00000000
vn -0.66649530 -0.46993682 0.57874295
vn -0.66649530 -0.46993682 0.57874295
vn -0.66649530 -0.46993682 0.57874295
vn -0.66649530 -0.46993682 0.57874295
vn 0.0000000e+0 0.0000000e+0 1.00000000
vn 0.0000000e+0 0.0000000e+0 1.00000000
vn 0.41590923 -0.72278754 0.55190370
vn 0.41590923 -0.72278754 0.55190370
vn 0.41590923 -0.72278754 0.55190370
vn 0.41590923 -0.72278754 0.55190370
vn 0.0000000e+0 0.0000000e+0 1.00000000
vn 0.40530958 0.77730163 0.48117182
vn 0.40530958 0.77730163 0.48117182
vn 0.40530958 0.77730163 0.48117182
vn 0.40530958 0.77730163 0.48117182
vn 0.40530958 0.77730163 0.48117182
vn 0.40530958 0.77730163 0.48117182
vn 0.0000000e+0 0.0000000e+0 1.00000000
vn 0.0000000e+0 1.00000000 -5.0172313e-16
vn 7.3053294e-2 0.94949868 0.30514829
vn 7.3053294e-2 0.94949868 0.30514829
vn 0.0000000e+0 1.00000000 -1.6724104e-16
vn 0.41568647 0.90872102 3.7826754e-2
vn 0.41568647 0.90872102 3.7826754e-2
vn 0.0000000e+0 1.00000000 -1.6724104e-16
vn 0.0000000e+0 1.00000000 -1.6724104e-16
vn 0.41568647 0.90872102 3.7826754e-2
vn 0.41568647 0.90872102 3.7826754e-2
g Cube1_default
usemtl default
s 1
f 2//10 25//135 1//3
f 3//15 1//4 25//136
f 5//28 6//35 4//24
f 7//36 4//18 6//29
f 9//49 11//60 8//42
f 10//52 11//56 9//45
f 13//71 14//77 12//66
f 15//80 12//62 14//73
f 17//93 18//99 16//89
f 19//102 16//84 18//95
f 21//115 23//128 20//109
f 22//116 23//121 21//110
f 24//129 25//132 2//7
s 2
f 1//6 18//100 2//11
f 2//8 23//122 24//130
f 3//17 9//50 1//5
f 4//22 14//78 5//26
f 5//27 11//59 6//34
f 6//31 10//55 3//14
f 6//32 25//133 7//37
f 7//38 23//125 4//23
f 7//39 25//137 23//126
f 8//43 16//88 9//51
f 9//47 3//13 10//54
f 9//48 19//105 1//2
f 10//53 6//30 11//57
f 11//61 14//79 8//44
f 12//68 16//90 13//72
f 13//69 8//40 14//74
f 14//75 4//19 15//81
f 14//76 11//58 5//25
f 15//83 22//120 12//67
f 16//87 8//41 13//70
f 16//86 12//63 17//91
f 17//94 21//114 18//101
f 18//96 1//1 19//103
f 18//98 20//107 2//9
f 19//104 9//46 16//85
f 20//106 18//97 21//111
f 21//112 12//64 22//117
f 21//113 17//92 12//65
f 22//118 4//20 23//123
f 22//119 15//82 4//21
f 23//127 2//12 20//108
f 24//131 23//124 25//134
f 25//138 6//33 3//16
