# Blender v2.81 (sub 16) OBJ File: 'Desk.blend'
# www.blender.org
mtllib Desk.mtl
o Main_Cube.008
v -0.943067 0.822970 0.213226
v -0.943067 0.878540 0.213226
v -0.943067 0.822970 -0.497001
v -0.943067 0.878540 -0.497001
v -0.998581 0.822970 -0.497001
v -0.998581 0.822970 0.213226
v -0.998581 0.878540 0.213226
v -0.998581 0.878540 -0.497001
v -0.943067 0.005285 -0.497001
v -0.943067 0.005285 0.213226
v -0.998581 0.005285 -0.497001
v -0.998581 0.005285 0.213226
v -0.998581 0.607977 -0.497001
v -0.998581 0.607977 0.213226
v -0.943067 0.607977 0.213226
v -0.943067 0.607977 -0.497001
v -0.998581 0.590572 -0.497001
v -0.998581 0.590572 0.213226
v -0.943067 0.590572 0.213226
v -0.943067 0.590572 -0.497001
v -0.468819 0.590572 0.213226
v -0.468819 0.607977 0.213226
v -0.468819 0.590572 -0.497001
v -0.468819 0.607977 -0.497001
v -0.524868 0.822970 -0.497001
v -0.524868 0.878540 0.213226
v -0.524868 0.878540 -0.497001
v -0.524868 0.822970 0.213226
v -0.462194 0.878540 -0.497001
v -0.462194 0.822970 -0.497001
v -0.462194 0.878540 0.213226
v -0.462194 0.001746 -0.497001
v -0.524868 0.001746 -0.497001
v -0.524868 0.001746 0.213226
v -0.462194 0.001746 0.213226
v -0.462194 0.822970 0.213226
v -0.998581 0.373127 -0.497001
v -0.998581 0.373127 0.213226
v -0.943067 0.373127 0.213226
v -0.943067 0.373127 -0.497001
v -0.998581 0.358856 -0.497001
v -0.998581 0.358856 0.213226
v -0.943067 0.358856 0.213226
v -0.943067 0.358856 -0.497001
v -0.489206 0.358856 0.213226
v -0.489206 0.373127 0.213226
v -0.489206 0.358856 -0.497001
v -0.489206 0.373127 -0.497001
v 0.943067 0.822970 0.213226
v 0.943067 0.878540 0.213226
v 0.943067 0.822970 -0.497001
v 0.943067 0.878540 -0.497001
v 0.998581 0.822970 -0.497001
v 0.998581 0.822970 0.213226
v 0.998581 0.878540 0.213226
v 0.998581 0.878540 -0.497001
v 0.943067 0.005285 -0.497001
v 0.943067 0.005285 0.213226
v 0.998581 0.005285 -0.497001
v 0.998581 0.005285 0.213226
v 0.998581 0.607977 -0.497001
v 0.998581 0.607977 0.213226
v 0.943067 0.607977 0.213226
v 0.943067 0.607977 -0.497001
v 0.998581 0.590572 -0.497001
v 0.998581 0.590572 0.213226
v 0.943067 0.590572 0.213226
v 0.943067 0.590572 -0.497001
v 0.468819 0.590572 0.213226
v 0.468819 0.607977 0.213226
v 0.468819 0.590572 -0.497001
v 0.468819 0.607977 -0.497001
v 0.524868 0.822970 -0.497001
v 0.524868 0.878540 0.213226
v 0.524868 0.878540 -0.497001
v 0.524868 0.822970 0.213226
v 0.462194 0.878540 -0.497001
v 0.462194 0.822970 -0.497001
v 0.462194 0.878540 0.213226
v 0.462194 0.001746 -0.497001
v 0.524868 0.001746 -0.497001
v 0.524868 0.001746 0.213226
v 0.462194 0.001746 0.213226
v 0.462194 0.822970 0.213226
v -0.000000 0.822970 -0.497001
v -0.000000 0.878540 -0.497001
v -0.000000 0.878540 0.213226
v -0.000000 0.822970 0.213226
v 0.998581 0.373127 -0.497001
v 0.998581 0.373127 0.213226
v 0.943067 0.373127 0.213226
v 0.943067 0.373127 -0.497001
v 0.998581 0.358856 -0.497001
v 0.998581 0.358856 0.213226
v 0.943067 0.358856 0.213226
v 0.943067 0.358856 -0.497001
v 0.489206 0.358856 0.213226
v 0.489206 0.373127 0.213226
v 0.489206 0.358856 -0.497001
v 0.489206 0.373127 -0.497001
vt 0.555134 0.937946
vt 0.555134 0.937946
vt 0.555134 0.937946
vt 0.555134 0.937946
vt 0.555134 0.937946
vt 0.555134 0.937946
vt 0.555134 0.937946
vt 0.555134 0.937946
vt 0.555134 0.937946
vt 0.555134 0.937946
vt 0.555134 0.937946
vt 0.555134 0.937946
vt 0.555134 0.937946
vt 0.555134 0.937946
vt 0.555134 0.937946
vt 0.555134 0.937946
vt 0.555134 0.937946
vt 0.555134 0.937946
vt 0.555134 0.937946
vt 0.555134 0.937946
vt 0.555134 0.937946
vt 0.555134 0.937946
vt 0.555134 0.937946
vt 0.555134 0.937946
vt 0.555134 0.937946
vt 0.555134 0.937946
vt 0.555134 0.937946
vt 0.555134 0.937946
vt 0.555134 0.937946
vt 0.555134 0.937946
vt 0.555134 0.937946
vt 0.555134 0.937946
vt 0.555134 0.937946
vt 0.555134 0.937946
vt 0.555134 0.937946
vt 0.555134 0.937946
vt 0.555134 0.937946
vt 0.555134 0.937946
vt 0.555134 0.937946
vt 0.555134 0.937946
vt 0.555134 0.937946
vt 0.555134 0.937946
vt 0.555134 0.937946
vt 0.555134 0.937946
vt 0.555134 0.937946
vt 0.555134 0.937946
vt 0.555134 0.937946
vt 0.555134 0.937946
vt 0.555134 0.937946
vt 0.555134 0.937946
vt 0.555134 0.937946
vt 0.555134 0.937946
vt 0.555134 0.937946
vt 0.555134 0.937946
vt 0.555134 0.937946
vt 0.555134 0.937946
vt 0.555134 0.937946
vt 0.555134 0.937946
vt 0.555134 0.937946
vt 0.555134 0.937946
vt 0.555134 0.937946
vt 0.555134 0.937946
vt 0.555134 0.937946
vt 0.555134 0.937946
vt 0.555134 0.937946
vt 0.555134 0.937946
vt 0.555134 0.937946
vt 0.555134 0.937946
vt 0.555134 0.937946
vt 0.555134 0.937946
vt 0.555134 0.937946
vt 0.555134 0.937946
vt 0.555134 0.937946
vt 0.555134 0.937946
vt 0.555134 0.937946
vt 0.555134 0.937946
vt 0.555134 0.937946
vt 0.555134 0.937946
vt 0.555134 0.937946
vt 0.555134 0.937946
vt 0.555134 0.937946
vt 0.555134 0.937946
vt 0.555134 0.937946
vt 0.555134 0.937946
vt 0.555134 0.937946
vt 0.555134 0.937946
vt 0.555134 0.937946
vt 0.555134 0.937946
vt 0.555134 0.937946
vt 0.555134 0.937946
vt 0.555134 0.937946
vt 0.555134 0.937946
vt 0.555134 0.937946
vt 0.555134 0.937946
vt 0.555134 0.937946
vt 0.555134 0.937946
vt 0.555134 0.937946
vt 0.555134 0.937946
vt 0.555134 0.937946
vt 0.555134 0.937946
vn 0.0000 0.0000 -1.0000
vn 0.0000 0.0000 1.0000
vn 0.0000 1.0000 0.0000
vn 0.0000 -1.0000 0.0000
vn -1.0000 0.0000 0.0000
vn 1.0000 0.0000 0.0000
usemtl Material
s off
f 4/1/1 3/2/1 5/3/1 8/4/1
f 28/5/2 26/6/2 2/7/2 1/8/2
f 27/9/3 4/1/3 2/7/3 26/6/3
f 30/10/4 85/11/4 88/12/4 36/13/4
f 30/10/1 29/14/1 86/15/1 85/11/1
f 6/16/5 7/17/5 8/4/5 5/3/5
f 1/8/2 2/7/2 7/17/2 6/16/2
f 2/7/3 4/1/3 8/4/3 7/17/3
f 42/18/5 41/19/5 11/20/5 12/21/5
f 9/22/4 10/23/4 12/21/4 11/20/4
f 43/24/2 42/18/2 12/21/2 10/23/2
f 44/25/6 43/24/6 10/23/6 9/22/6
f 41/19/1 44/25/1 9/22/1 11/20/1
f 5/3/1 3/2/1 16/26/1 13/27/1
f 3/2/6 1/8/6 15/28/6 16/26/6
f 1/8/2 6/16/2 14/29/2 15/28/2
f 6/16/5 5/3/5 13/27/5 14/29/5
f 13/27/1 16/26/1 20/30/1 17/31/1
f 15/28/2 19/32/2 21/33/2 22/34/2
f 15/28/2 14/29/2 18/35/2 19/32/2
f 14/29/5 13/27/5 17/31/5 18/35/5
f 24/36/6 22/34/6 21/33/6 23/37/6
f 19/32/4 20/30/4 23/37/4 21/33/4
f 16/26/3 15/28/3 22/34/3 24/36/3
f 20/30/1 16/26/1 24/36/1 23/37/1
f 3/2/1 4/1/1 27/9/1 25/38/1
f 3/2/4 25/38/4 28/5/4 1/8/4
f 29/14/3 27/9/3 26/6/3 31/39/3
f 36/13/2 31/39/2 26/6/2 28/5/2
f 88/12/2 87/40/2 31/39/2 36/13/2
f 86/15/3 29/14/3 31/39/3 87/40/3
f 25/38/1 27/9/1 29/14/1 30/10/1
f 36/13/2 28/5/2 34/41/2 35/42/2
f 33/43/4 32/44/4 35/42/4 34/41/4
f 28/5/5 25/38/5 33/43/5 34/41/5
f 30/10/6 36/13/6 35/42/6 32/44/6
f 25/38/1 30/10/1 32/44/1 33/43/1
f 17/31/1 20/30/1 40/45/1 37/46/1
f 20/30/6 19/32/6 39/47/6 40/45/6
f 19/32/2 18/35/2 38/48/2 39/47/2
f 18/35/5 17/31/5 37/46/5 38/48/5
f 37/46/1 40/45/1 44/25/1 41/19/1
f 40/45/3 39/47/3 46/49/3 48/50/3
f 39/47/2 38/48/2 42/18/2 43/24/2
f 38/48/5 37/46/5 41/19/5 42/18/5
f 48/50/6 46/49/6 45/51/6 47/52/6
f 44/25/1 40/45/1 48/50/1 47/52/1
f 39/47/2 43/24/2 45/51/2 46/49/2
f 43/24/4 44/25/4 47/52/4 45/51/4
f 52/53/1 56/54/1 53/55/1 51/56/1
f 76/57/2 49/58/2 50/59/2 74/60/2
f 75/61/3 74/60/3 50/59/3 52/53/3
f 78/62/4 84/63/4 88/12/4 85/11/4
f 78/62/1 85/11/1 86/15/1 77/64/1
f 54/65/6 53/55/6 56/54/6 55/66/6
f 49/58/2 54/65/2 55/66/2 50/59/2
f 50/59/3 55/66/3 56/54/3 52/53/3
f 94/67/6 60/68/6 59/69/6 93/70/6
f 57/71/4 59/69/4 60/68/4 58/72/4
f 95/73/2 58/72/2 60/68/2 94/67/2
f 96/74/5 57/71/5 58/72/5 95/73/5
f 93/70/1 59/69/1 57/71/1 96/74/1
f 53/55/1 61/75/1 64/76/1 51/56/1
f 51/56/5 64/76/5 63/77/5 49/58/5
f 49/58/2 63/77/2 62/78/2 54/65/2
f 54/65/6 62/78/6 61/75/6 53/55/6
f 61/75/1 65/79/1 68/80/1 64/76/1
f 63/77/2 70/81/2 69/82/2 67/83/2
f 63/77/2 67/83/2 66/84/2 62/78/2
f 62/78/6 66/84/6 65/79/6 61/75/6
f 72/85/5 71/86/5 69/82/5 70/81/5
f 67/83/4 69/82/4 71/86/4 68/80/4
f 64/76/3 72/85/3 70/81/3 63/77/3
f 68/80/1 71/86/1 72/85/1 64/76/1
f 51/56/1 73/87/1 75/61/1 52/53/1
f 51/56/4 49/58/4 76/57/4 73/87/4
f 77/64/3 79/88/3 74/60/3 75/61/3
f 84/63/2 76/57/2 74/60/2 79/88/2
f 88/12/2 84/63/2 79/88/2 87/40/2
f 86/15/3 87/40/3 79/88/3 77/64/3
f 73/87/1 78/62/1 77/64/1 75/61/1
f 84/63/2 83/89/2 82/90/2 76/57/2
f 81/91/4 82/90/4 83/89/4 80/92/4
f 76/57/6 82/90/6 81/91/6 73/87/6
f 78/62/5 80/92/5 83/89/5 84/63/5
f 73/87/1 81/91/1 80/92/1 78/62/1
f 65/79/1 89/93/1 92/94/1 68/80/1
f 68/80/5 92/94/5 91/95/5 67/83/5
f 67/83/2 91/95/2 90/96/2 66/84/2
f 66/84/6 90/96/6 89/93/6 65/79/6
f 89/93/1 93/70/1 96/74/1 92/94/1
f 92/94/3 100/97/3 98/98/3 91/95/3
f 91/95/2 95/73/2 94/67/2 90/96/2
f 90/96/6 94/67/6 93/70/6 89/93/6
f 100/97/5 99/99/5 97/100/5 98/98/5
f 96/74/1 99/99/1 100/97/1 92/94/1
f 91/95/2 98/98/2 97/100/2 95/73/2
f 95/73/4 97/100/4 99/99/4 96/74/4
