# Blender v2.81 (sub 16) OBJ File: 'Desk.blend'
# www.blender.org
mtllib DrawerLeft3.mtl
o DrawerLeft3_Cube.005
v 0.840796 0.194580 -0.499343
v 0.840796 0.174263 -0.499343
v 0.941452 0.360935 0.194534
v 0.941452 0.007908 0.194534
v 0.637399 0.194580 -0.499343
v 0.637399 0.174263 -0.499343
v 0.536743 0.360935 0.194534
v 0.536743 0.007908 0.194534
v 0.941452 0.360935 0.194534
v 0.536743 0.360935 0.194534
v 0.941452 0.360935 -0.499343
v 0.536743 0.360935 -0.499343
v 0.927802 0.360935 0.171131
v 0.550392 0.360935 0.171131
v 0.927802 0.360935 -0.475940
v 0.550392 0.360935 -0.475940
v 0.941452 0.360935 0.194534
v 0.536743 0.360935 0.194534
v 0.941452 0.360935 -0.499343
v 0.536743 0.360935 -0.499343
v 0.903888 0.048722 0.130132
v 0.574306 0.048722 0.130132
v 0.903888 0.048722 -0.434941
v 0.574306 0.048722 -0.434941
v 0.941452 0.007908 -0.499343
v 0.536743 0.007908 -0.499343
v 0.941452 0.360935 -0.499343
v 0.536743 0.360935 -0.499343
v 0.840796 0.174263 -0.526453
v 0.637399 0.174263 -0.526453
v 0.840796 0.194580 -0.526453
v 0.637399 0.194580 -0.526453
vt 0.555134 0.937946
vt 0.555134 0.937946
vt 0.555134 0.937946
vt 0.555134 0.937946
vt 0.555134 0.937946
vt 0.555134 0.937946
vt 0.555134 0.937946
vt 0.555134 0.937946
vt 0.555134 0.937946
vt 0.555134 0.937946
vt 0.824677 0.908541
vt 0.824677 0.908541
vt 0.824677 0.908541
vt 0.824677 0.908541
vt 0.555134 0.937946
vt 0.555134 0.937946
vt 0.555134 0.937946
vt 0.555134 0.937946
vt 0.555134 0.937946
vt 0.555134 0.937946
vt 0.555134 0.937946
vt 0.555134 0.937946
vt 0.555134 0.937946
vt 0.555134 0.937946
vt 0.555134 0.937946
vt 0.555134 0.937946
vt 0.555134 0.937946
vt 0.555134 0.937946
vt 0.555134 0.937946
vt 0.555134 0.937946
vt 0.555134 0.937946
vt 0.555134 0.937946
vt 0.824677 0.908541
vt 0.824677 0.908541
vt 0.824677 0.908541
vt 0.824677 0.908541
vn 0.0000 0.0000 1.0000
vn -1.0000 0.0000 0.0000
vn 0.0000 -1.0000 0.0000
vn 1.0000 0.0000 0.0000
vn 0.9971 0.0764 0.0000
vn 0.0000 1.0000 -0.0000
vn 0.0000 0.1302 -0.9915
vn 0.0000 0.1302 0.9915
vn -0.9971 0.0764 0.0000
vn 0.0000 0.0000 -1.0000
usemtl Material.004
s off
f 27/1/1 28/2/1 12/3/1 11/4/1
f 4/5/1 3/6/1 7/7/1 8/8/1
f 8/8/2 7/7/2 28/2/2 26/9/2
f 26/9/3 25/10/3 4/5/3 8/8/3
f 25/10/4 27/1/4 3/6/4 4/5/4
f 6/11/2 5/12/2 32/13/2 30/14/2
f 11/4/1 12/3/1 20/15/1 19/16/1
f 7/7/1 3/6/1 9/17/1 10/18/1
f 28/2/1 7/7/1 10/18/1 12/3/1
f 3/6/1 27/1/1 11/4/1 9/17/1
f 16/19/5 14/20/5 22/21/5 24/22/5
f 9/17/1 11/4/1 19/16/1 17/23/1
f 12/3/1 10/18/1 18/24/1 20/15/1
f 10/18/1 9/17/1 17/23/1 18/24/1
f 13/25/6 14/20/6 18/24/6 17/23/6
f 15/26/6 13/25/6 17/23/6 19/16/6
f 14/20/6 16/19/6 20/15/6 18/24/6
f 16/19/6 15/26/6 19/16/6 20/15/6
f 23/27/6 24/22/6 22/21/6 21/28/6
f 14/20/7 13/25/7 21/28/7 22/21/7
f 15/26/8 16/19/8 24/22/8 23/27/8
f 13/25/9 15/26/9 23/27/9 21/28/9
f 6/29/10 2/30/10 25/10/10 26/9/10
f 2/30/10 1/31/10 27/1/10 25/10/10
f 5/32/10 6/29/10 26/9/10 28/2/10
f 1/31/10 5/32/10 28/2/10 27/1/10
f 30/14/10 32/13/10 31/33/10 29/34/10
f 2/35/3 6/11/3 30/14/3 29/34/3
f 5/12/6 1/36/6 31/33/6 32/13/6
f 1/36/4 2/35/4 29/34/4 31/33/4
