# Exported from Wings 3D 2.1.7
mtllib Egg_A__1.mtl
o sphere2
#30 vertices, 56 faces
v 0.55839599 1.06319182 -3.9650822e-19
v 0.34815420 1.06319182 0.43657156
v -0.12425480 1.06319182 0.54439584
v -0.50309740 1.06319182 0.24227894
v -0.50309740 1.06319182 -0.24227894
v -0.12425480 1.06319182 -0.54439584
v 0.34815420 1.06319182 -0.43657156
v 0.88001259 0.44365415 3.1684406e-18
v 0.54867888 0.44365415 0.68802155
v -0.19582122 0.44365415 0.85794884
v -0.79286395 0.44365415 0.38182315
v -0.79286395 0.44365415 -0.38182315
v -0.19582122 0.44365415 -0.85794884
v 0.54867888 0.44365415 -0.68802155
v 0.95105652 -0.30901699 0.0000000e+0
v 0.59297404 -0.30901699 0.74356593
v -0.21162998 -0.30901699 0.92721154
v -0.85687231 -0.30901699 0.41264796
v -0.85687231 -0.30901699 -0.41264796
v -0.21162998 -0.30901699 -0.92721154
v 0.59297404 -0.30901699 -0.74356593
v 0.66302176 -0.80901699 1.0150611e-18
v 0.41338731 -0.80901699 0.51837129
v -0.14753622 -0.80901699 0.64639842
v -0.59736197 -0.80901699 0.28767436
v -0.59736197 -0.80901699 -0.28767436
v -0.14753622 -0.80901699 -0.64639842
v 0.41338731 -0.80901699 -0.51837129
v 0.0000000e+0 1.32338084 0.0000000e+0
v 0.0000000e+0 -1.05333333 0.0000000e+0
vn 0.76260567 0.64686366 1.0344765e-17
vn 0.38635356 0.67848339 0.62481295
vn -0.15219688 0.72951335 0.66681810
vn -0.68708397 0.64686366 0.33088220
vn -0.61623258 0.72951335 -0.29676197
vn -0.16969573 0.64686366 -0.74348555
vn 0.42644618 0.72951335 -0.53474660
vn 0.95870744 0.28439418 -7.7631005e-17
vn 0.65032920 0.25707535 0.71483158
vn -0.27807275 0.31017115 0.90910363
vn -0.86376556 0.28439418 0.41596757
vn -0.86376556 0.28439418 -0.41596757
vn -0.21333247 0.28439418 -0.93467064
vn 0.59774431 0.28439418 -0.74954766
vn 0.97634128 -0.21623530 -1.1973691e-16
vn 0.52795771 -0.27663365 0.80295360
vn -0.12225214 -0.15281764 0.98066364
vn -0.87965310 -0.21623530 0.42361861
vn -0.87965310 -0.21623530 -0.42361861
vn -0.21725637 -0.21623530 -0.95186237
vn 0.60873883 -0.21623530 -0.76333435
vn 0.63541690 -0.77216926 -1.0822312e-16
vn 0.49571101 -0.72124318 0.48381697
vn -0.16118145 -0.68943995 0.70618206
vn -0.57249085 -0.77216926 0.27569706
vn -0.65261035 -0.68943995 -0.31428058
vn -0.14139356 -0.77216926 -0.61948567
vn 0.45162038 -0.68943995 -0.56631404
vn 0.0000000e+0 1.00000000 1.2499106e-16
vn -4.2838939e-17 -1.00000000 -8.5677878e-18
g sphere2_default
usemtl default
s 1
f 1//1 9//9 8//8
f 1//1 14//14 7//7
f 1//1 29//29 2//2
f 2//2 9//9 1//1
f 2//2 10//10 9//9
f 2//2 29//29 3//3
f 3//3 10//10 2//2
f 3//3 29//29 4//4
f 4//4 10//10 3//3
f 4//4 12//12 11//11
f 4//4 29//29 5//5
f 5//5 12//12 4//4
f 5//5 29//29 6//6
f 6//6 12//12 5//5
f 6//6 14//14 13//13
f 6//6 29//29 7//7
f 7//7 14//14 6//6
f 7//7 29//29 1//1
f 8//8 14//14 1//1
f 8//8 15//15 14//14
f 9//9 15//15 8//8
f 9//9 17//17 16//16
f 10//10 17//17 9//9
f 10//10 18//18 17//17
f 11//11 10//10 4//4
f 11//11 18//18 10//10
f 12//12 18//18 11//11
f 12//12 20//20 19//19
f 13//13 12//12 6//6
f 13//13 20//20 12//12
f 14//14 15//15 21//21
f 14//14 20//20 13//13
f 15//15 23//23 22//22
f 15//15 28//28 21//21
f 16//16 15//15 9//9
f 16//16 23//23 15//15
f 16//16 24//24 23//23
f 17//17 24//24 16//16
f 18//18 24//24 17//17
f 18//18 26//26 25//25
f 19//19 18//18 12//12
f 19//19 26//26 18//18
f 20//20 26//26 19//19
f 20//20 28//28 27//27
f 21//21 20//20 14//14
f 21//21 28//28 20//20
f 22//22 28//28 15//15
f 22//22 30//30 28//28
f 23//23 30//30 22//22
f 24//24 30//30 23//23
f 25//25 24//24 18//18
f 25//25 30//30 24//24
f 26//26 30//30 25//25
f 27//27 26//26 20//20
f 27//27 30//30 26//26
f 28//28 30//30 27//27
