# Exported from Wings 3D 2.1.7
mtllib Match_A__1.mtl
o Cube1
#20 vertices, 36 faces
v -8.4000000e-2 -8.4000000e-2 -1.90702512
v -8.4000000e-2 -8.4000000e-2 1.90702512
v -8.4000000e-2 8.4000000e-2 -1.90702512
v -8.4000000e-2 8.4000000e-2 1.90702512
v 8.4000000e-2 -8.4000000e-2 -1.90702512
v 8.4000000e-2 -8.4000000e-2 1.90702512
v 8.4000000e-2 8.4000000e-2 -1.90702512
v 8.4000000e-2 8.4000000e-2 1.90702512
v -0.13322400 -0.13322400 -2.03482032
v -0.13322400 0.13322400 -2.03482032
v 0.13322400 0.13322400 -2.03482032
v 0.13322400 -0.13322400 -2.03482032
v -0.16439842 -0.16439842 -2.23579739
v -0.16439842 0.16439842 -2.23579739
v 0.16439842 0.16439842 -2.23579739
v 0.16439842 -0.16439842 -2.23579739
v -8.7131160e-2 -8.7131160e-2 -2.43786672
v -8.7131160e-2 8.7131160e-2 -2.43786672
v 8.7131160e-2 8.7131160e-2 -2.43786672
v 8.7131160e-2 -8.7131160e-2 -2.43786672
vn 0.0000000e+0 -0.93316934 0.35943703
vn 0.0000000e+0 -1.00000000 0.0000000e+0
vn -1.00000000 0.0000000e+0 0.0000000e+0
vn -0.93316934 0.0000000e+0 0.35943703
vn 0.0000000e+0 -1.00000000 0.0000000e+0
vn -0.70710678 0.0000000e+0 0.70710678
vn -0.70710678 0.0000000e+0 0.70710678
vn 0.0000000e+0 -1.00000000 0.0000000e+0
vn -0.70710678 0.0000000e+0 0.70710678
vn -0.70710678 0.0000000e+0 0.70710678
vn 0.0000000e+0 1.00000000 0.0000000e+0
vn -1.00000000 0.0000000e+0 0.0000000e+0
vn -0.93316934 0.0000000e+0 0.35943703
vn 0.0000000e+0 0.93316934 0.35943703
vn 0.0000000e+0 1.00000000 0.0000000e+0
vn 0.0000000e+0 0.93316934 0.35943703
vn -1.00000000 0.0000000e+0 0.0000000e+0
vn -0.93316934 0.0000000e+0 0.35943703
vn -0.70710678 0.0000000e+0 0.70710678
vn 0.0000000e+0 1.00000000 0.0000000e+0
vn -0.70710678 0.0000000e+0 0.70710678
vn 0.0000000e+0 -1.00000000 0.0000000e+0
vn 1.00000000 0.0000000e+0 0.0000000e+0
vn 0.93316934 0.0000000e+0 0.35943703
vn 0.0000000e+0 -0.93316934 0.35943703
vn 1.00000000 0.0000000e+0 0.0000000e+0
vn 0.93316934 0.0000000e+0 0.35943703
vn 0.0000000e+0 -0.93316934 0.35943703
vn 0.0000000e+0 -1.00000000 0.0000000e+0
vn 0.0000000e+0 -1.00000000 0.0000000e+0
vn 0.0000000e+0 0.0000000e+0 1.00000000
vn 1.00000000 0.0000000e+0 0.0000000e+0
vn 0.0000000e+0 1.00000000 0.0000000e+0
vn 1.00000000 0.0000000e+0 0.0000000e+0
vn 0.93316934 0.0000000e+0 0.35943703
vn 0.0000000e+0 0.93316934 0.35943703
vn 0.0000000e+0 1.00000000 0.0000000e+0
vn 0.0000000e+0 0.0000000e+0 1.00000000
vn 1.00000000 0.0000000e+0 0.0000000e+0
vn 0.0000000e+0 1.00000000 0.0000000e+0
vn 1.00000000 0.0000000e+0 0.0000000e+0
vn 0.0000000e+0 0.0000000e+0 1.00000000
vn -0.96619013 0.0000000e+0 0.25783061
vn 0.0000000e+0 -0.96619013 0.25783061
vn -0.96619013 0.0000000e+0 0.25783061
vn 0.0000000e+0 -0.96619013 0.25783061
vn 0.0000000e+0 -0.96619013 0.25783061
vn -0.96619013 0.0000000e+0 0.25783061
vn 0.0000000e+0 -0.96619013 0.25783061
vn -0.96619013 0.0000000e+0 0.25783061
vn -0.96619013 0.0000000e+0 0.25783061
vn 0.0000000e+0 0.96619013 0.25783061
vn -0.96619013 0.0000000e+0 0.25783061
vn 0.0000000e+0 0.96619013 0.25783061
vn 0.0000000e+0 0.96619013 0.25783061
vn 0.96619013 0.0000000e+0 0.25783061
vn 0.0000000e+0 0.96619013 0.25783061
vn 0.96619013 0.0000000e+0 0.25783061
vn 0.96619013 0.0000000e+0 0.25783061
vn 0.96619013 0.0000000e+0 0.25783061
vn 0.0000000e+0 0.96619013 0.25783061
vn 0.0000000e+0 0.96619013 0.25783061
vn 0.96619013 0.0000000e+0 0.25783061
vn 0.0000000e+0 -0.96619013 0.25783061
vn 0.96619013 0.0000000e+0 0.25783061
vn 0.0000000e+0 -0.96619013 0.25783061
vn -0.99442227 0.0000000e+0 -0.10547200
vn 0.0000000e+0 -0.99442227 -0.10547200
vn -0.99442227 0.0000000e+0 -0.10547200
vn 0.0000000e+0 -0.99442227 -0.10547200
vn -0.99442227 0.0000000e+0 -0.10547200
vn 0.0000000e+0 0.99442227 -0.10547200
vn -0.99442227 0.0000000e+0 -0.10547200
vn 0.0000000e+0 0.99442227 -0.10547200
vn -0.99442227 0.0000000e+0 -0.10547200
vn 0.0000000e+0 0.99442227 -0.10547200
vn -0.99442227 0.0000000e+0 -0.10547200
vn 0.0000000e+0 0.99442227 -0.10547200
vn 0.0000000e+0 0.99442227 -0.10547200
vn 0.99442227 0.0000000e+0 -0.10547200
vn 0.0000000e+0 0.99442227 -0.10547200
vn 0.99442227 0.0000000e+0 -0.10547200
vn 0.99442227 0.0000000e+0 -0.10547200
vn 0.0000000e+0 -0.99442227 -0.10547200
vn 0.99442227 0.0000000e+0 -0.10547200
vn 0.0000000e+0 -0.99442227 -0.10547200
vn 0.99442227 0.0000000e+0 -0.10547200
vn 0.0000000e+0 -0.99442227 -0.10547200
vn 0.0000000e+0 -0.99442227 -0.10547200
vn 0.99442227 0.0000000e+0 -0.10547200
vn 0.0000000e+0 0.0000000e+0 -1.00000000
vn -0.93404343 0.0000000e+0 -0.35715945
vn 0.0000000e+0 -0.93404343 -0.35715945
vn 0.0000000e+0 0.0000000e+0 -1.00000000
vn -0.93404343 0.0000000e+0 -0.35715945
vn 0.0000000e+0 -0.93404343 -0.35715945
vn -0.93404343 0.0000000e+0 -0.35715945
vn 0.0000000e+0 0.93404343 -0.35715945
vn 0.0000000e+0 0.0000000e+0 -1.00000000
vn 0.0000000e+0 0.0000000e+0 -1.00000000
vn 0.0000000e+0 0.93404343 -0.35715945
vn 0.93404343 0.0000000e+0 -0.35715945
vn 0.0000000e+0 0.93404343 -0.35715945
vn 0.0000000e+0 0.0000000e+0 -1.00000000
vn 0.93404343 0.0000000e+0 -0.35715945
vn 0.0000000e+0 0.0000000e+0 -1.00000000
vn 0.93404343 0.0000000e+0 -0.35715945
vn 0.0000000e+0 -0.93404343 -0.35715945
g Cube1_default
usemtl default
s 1
f 1//2 5//29 2//8
f 2//5 5//22 6//30
f 3//11 8//37 7//33
f 3//18 9//50 1//4
f 4//20 8//40 3//15
f 5//27 11//59 7//35
f 9//43 3//13 10//51
f 10//53 14//75 9//48
f 11//56 5//24 12//63
f 12//65 16//87 11//60
f 13//67 9//45 14//71
f 14//77 17//95 13//69
f 15//80 11//58 16//83
f 16//90 19//105 15//82
f 17//92 14//73 18//97
f 19//102 16//85 20//107
s 2
f 1//1 9//49 5//28
f 5//26 8//41 6//32
f 7//34 8//39 5//23
f 7//36 11//62 3//16
f 9//47 16//88 12//66
f 10//52 3//14 11//55
f 11//61 14//78 10//54
f 12//64 5//25 9//44
f 13//68 16//84 9//46
f 13//70 17//96 16//89
f 14//72 11//57 15//79
f 15//81 19//103 14//76
f 18//98 14//74 19//101
f 20//108 16//86 17//93
s 3
f 2//10 3//17 1//3
f 2//9 8//42 4//21
f 4//19 3//12 2//7
f 6//31 8//38 2//6
f 18//99 19//104 17//94
f 20//106 17//91 19//100
