# Exported from Wings 3D 2.1.7
mtllib Paper_C__1.mtl
o cone2
#5 vertices, 6 faces
v 2.04758104 2.8694704e-2 -1.33176788
v -8.3506890e-3 0.11911520 -2.68204382
v 1.2037154e-2 0.13830234 -2.66128498
v 2.06667246 6.1734833e-2 -1.33258033
v 0.0000000e+0 0.22865685 -1.67946505
vn 0.54637448 -1.1424904e-2 -0.83746308
vn -0.11490877 -0.98739550 0.10883983
vn -0.15549245 0.11397609 0.98123980
vn 0.54637448 -1.1424904e-2 -0.83746308
vn -0.11490877 -0.98739550 0.10883983
vn -0.63985756 0.76450444 -7.8200172e-2
vn 0.53408391 0.29120506 -0.79369641
vn 0.54637448 -1.1424904e-2 -0.83746308
vn -0.63985756 0.76450444 -7.8200172e-2
vn 9.5189430e-2 0.99137628 -9.0066930e-2
vn 0.54637448 -1.1424904e-2 -0.83746308
vn 0.50749626 -0.31298491 -0.80280009
vn 9.5189430e-2 0.99137628 -9.0066930e-2
vn -0.15549245 0.11397609 0.98123980
vn -0.11490877 -0.98739550 0.10883983
vn -0.63985756 0.76450444 -7.8200172e-2
vn 9.5189430e-2 0.99137628 -9.0066930e-2
vn -0.15549245 0.11397609 0.98123980
g cone2_default
usemtl default
s 1
f 2//6 5//16 3//9
f 4//14 5//18 1//3
s 2
f 1//1 3//8 4//12
f 2//7 3//11 1//4
s 3
f 1//2 5//15 2//5
f 3//10 5//17 4//13
o Cube1
#14 vertices, 24 faces
v -2.06550000 6.7307796e-3 -2.67300000
v -2.06550000 -6.7307796e-3 -2.67300000
v -2.06550000 -0.12264765 2.67300000
v -2.06550000 -0.13610921 2.67300000
v 2.06550000 6.7307796e-3 2.67300000
v 2.06550000 -6.7307796e-3 2.67300000
v 2.06550000 -6.6464604e-2 0.0000000e+0
v 2.06550000 -5.3003045e-2 0.0000000e+0
v -2.06550000 -0.21928881 0.0000000e+0
v -2.06550000 -0.20582725 0.0000000e+0
v 2.06550000 2.6726396e-2 -1.33650000
v 2.06550000 4.0187956e-2 -1.33650000
v 0.0000000e+0 0.11028059 -2.67300000
v 0.0000000e+0 0.12374215 -2.67300000
vn 1.4973417e-15 0.0000000e+0 -1.00000000
vn -1.00000000 0.0000000e+0 0.0000000e+0
vn -5.6382284e-2 0.99526743 7.9144064e-2
vn -1.2477848e-15 0.0000000e+0 -1.00000000
vn 5.6382284e-2 -0.99526743 -7.9144064e-2
vn -1.00000000 0.0000000e+0 0.0000000e+0
vn -1.2477848e-15 0.0000000e+0 -1.00000000
vn -1.00000000 0.0000000e+0 0.0000000e+0
vn 9.9822783e-16 0.0000000e+0 1.00000000
vn -3.4124008e-2 0.99906071 -2.6706731e-2
vn 9.9822783e-16 0.0000000e+0 1.00000000
vn -3.4124008e-2 0.99906071 -2.6706731e-2
vn -1.00000000 0.0000000e+0 0.0000000e+0
vn -1.00000000 0.0000000e+0 0.0000000e+0
vn 0.0000000e+0 0.0000000e+0 1.00000000
vn 3.1288433e-2 -0.99902681 3.1088160e-2
vn -1.00000000 0.0000000e+0 0.0000000e+0
vn 1.9964557e-15 0.0000000e+0 1.00000000
vn 1.00000000 0.0000000e+0 0.0000000e+0
vn -3.1295758e-2 0.99926069 -2.2330588e-2
vn 9.9822783e-16 0.0000000e+0 1.00000000
vn 3.4124670e-2 -0.99906066 2.6707577e-2
vn 1.00000000 0.0000000e+0 0.0000000e+0
vn 9.9822783e-16 0.0000000e+0 1.00000000
vn 1.00000000 0.0000000e+0 0.0000000e+0
vn 3.4124670e-2 -0.99906066 2.6707577e-2
vn 3.6959977e-2 -0.99906731 2.2326267e-2
vn 1.00000000 0.0000000e+0 0.0000000e+0
vn 1.00000000 0.0000000e+0 0.0000000e+0
vn 2.0733761e-2 -0.99642424 -8.1907513e-2
vn 2.0733761e-2 -0.99642424 -8.1907513e-2
vn -3.4124008e-2 0.99906071 -2.6706731e-2
vn -2.0733761e-2 0.99642424 8.1907513e-2
vn 1.00000000 0.0000000e+0 0.0000000e+0
vn 1.00000000 0.0000000e+0 0.0000000e+0
vn 1.00000000 0.0000000e+0 0.0000000e+0
vn 1.00000000 0.0000000e+0 0.0000000e+0
vn -2.0733761e-2 0.99642424 8.1907513e-2
vn -3.4124008e-2 0.99906071 -2.6706731e-2
vn 4.6597060e-2 -0.99514497 -8.6690274e-2
vn -1.00000000 0.0000000e+0 0.0000000e+0
vn 3.4124670e-2 -0.99906066 2.6707577e-2
vn -1.00000000 0.0000000e+0 0.0000000e+0
vn 4.6597060e-2 -0.99514497 -8.6690274e-2
vn 3.4124670e-2 -0.99906066 2.6707577e-2
vn -3.6951330e-2 0.99883357 -3.1082147e-2
vn -1.00000000 0.0000000e+0 0.0000000e+0
vn -1.00000000 0.0000000e+0 0.0000000e+0
vn -1.00000000 0.0000000e+0 0.0000000e+0
vn -4.6597060e-2 0.99514497 8.6690274e-2
vn -4.6597060e-2 0.99514497 8.6690274e-2
vn -1.00000000 0.0000000e+0 0.0000000e+0
vn 1.00000000 0.0000000e+0 0.0000000e+0
vn 0.54325128 0.0000000e+0 -0.83957016
vn 1.00000000 0.0000000e+0 0.0000000e+0
vn 0.54325128 0.0000000e+0 -0.83957016
vn 4.6542527e-3 -0.99756705 -6.9558003e-2
vn -4.6542527e-3 0.99756705 6.9558003e-2
vn 1.00000000 0.0000000e+0 0.0000000e+0
vn 0.54325128 0.0000000e+0 -0.83957016
vn -3.9929113e-15 0.0000000e+0 -1.00000000
vn 3.2622875e-2 -0.99618026 -8.0997756e-2
vn 0.54325128 0.0000000e+0 -0.83957016
vn 3.2622875e-2 -0.99618026 -8.0997756e-2
vn 3.2622875e-2 -0.99618026 -8.0997756e-2
vn -1.2477848e-15 0.0000000e+0 -1.00000000
vn -3.2622875e-2 0.99618026 8.0997756e-2
vn 0.54325128 0.0000000e+0 -0.83957016
vn 0.54325128 0.0000000e+0 -0.83957016
vn -1.2477848e-15 0.0000000e+0 -1.00000000
vn -3.2622875e-2 0.99618026 8.0997756e-2
vn -3.2622875e-2 0.99618026 8.0997756e-2
g Cube1_default
usemtl default
s 1
f 7//23 18//80 14//58
f 8//28 13//50 15//64
f 10//38 13//57 8//30
f 12//48 18//82 16//75
f 14//62 18//83 12//49
s 2
f 8//27 11//39 10//36
f 9//33 11//42 8//29
f 16//72 19//86 17//78
f 19//87 16//74 18//81
s 3
f 9//34 14//63 11//44
f 11//40 14//60 12//45
f 13//56 19//89 15//68
f 15//69 19//90 6//21
f 17//76 19//85 13//51
s 4
f 7//26 15//67 6//20
f 8//31 15//70 9//35
f 9//32 15//66 14//61
f 11//43 13//54 10//37
f 12//46 13//52 11//41
f 12//47 16//73 13//55
f 13//53 16//71 17//77
f 14//59 15//65 7//24
s 5
f 6//19 19//88 7//25
f 7//22 19//84 18//79
