# Exported from Wings 3D 2.1.7
mtllib Pencil_A__1.mtl
o Cylinder1
#19 vertices, 34 faces
v 0.57000000 4.6837331e-17 8.42637840
v 0.28500000 -0.49363448 8.42637840
v -0.28500000 -0.49363448 8.42637840
v -0.57000000 -2.2967536e-17 8.42637840
v -0.28500000 0.49363448 8.42637840
v 0.28500000 0.49363448 8.42637840
v 0.57000000 -2.2967536e-17 -8.42637840
v 0.28500000 -0.49363448 -8.42637840
v -0.28500000 -0.49363448 -8.42637840
v -0.57000000 -9.2772404e-17 -8.42637840
v -0.28500000 0.49363448 -8.42637840
v 0.28500000 0.49363448 -8.42637840
v -1.6653345e-16 2.7755576e-17 11.33823738
v -0.28500000 2.3940197e-18 9.88230789
v -0.14250000 -0.24681724 9.88230789
v 0.28500000 3.7296453e-17 9.88230789
v 0.14250000 0.24681724 9.88230789
v -0.14250000 0.24681724 9.88230789
v 0.14250000 -0.24681724 9.88230789
vn 0.86602540 0.50000000 0.0000000e+0
vn 0.86602540 -0.50000000 0.0000000e+0
vn 0.98137433 3.5091309e-16 0.19210524
vn 0.98137433 3.5091309e-16 0.19210524
vn 9.7387985e-17 -1.00000000 5.7787569e-18
vn 0.86602540 -0.50000000 1.4446892e-18
vn 0.49068717 -0.84989510 0.19210524
vn 0.49068717 -0.84989510 0.19210524
vn 0.86602540 -0.50000000 1.4446892e-18
vn 9.7387985e-17 -1.00000000 5.7787569e-18
vn 0.49068717 -0.84989510 0.19210524
vn 0.49068717 -0.84989510 0.19210524
vn 9.7387985e-17 -1.00000000 1.1557514e-17
vn -0.86602540 -0.50000000 2.8893784e-18
vn -0.49068717 -0.84989510 0.19210524
vn -0.49068717 -0.84989510 0.19210524
vn -0.86602540 0.50000000 -4.3340677e-18
vn -0.86602540 -0.50000000 2.8893784e-18
vn -0.98137433 -3.0306131e-16 0.19210524
vn -0.98137433 -3.0306131e-16 0.19210524
vn -0.86602540 -0.50000000 2.8893784e-18
vn -0.86602540 0.50000000 -4.3340677e-18
vn -0.98137433 -3.0306131e-16 0.19210524
vn -0.98137433 -3.0306131e-16 0.19210524
vn -0.86602540 0.50000000 -5.7787569e-18
vn -0.49068717 0.84989510 0.19210524
vn -0.49068717 0.84989510 0.19210524
vn -4.8693992e-16 1.00000000 -2.3115028e-17
vn 0.86602540 0.50000000 -1.4446892e-18
vn -5.3563392e-16 1.00000000 -1.1557514e-17
vn 0.49068717 0.84989510 0.19210524
vn 0.49068717 0.84989510 0.19210524
vn 0.86602540 0.50000000 -1.4446892e-18
vn 0.49068717 0.84989510 0.19210524
vn -5.3563392e-16 1.00000000 -1.1557514e-17
vn 0.49068717 0.84989510 0.19210524
vn 0.86602540 0.50000000 -1.4446892e-18
vn 0.86602540 -0.50000000 1.4446892e-18
vn -2.1044016e-15 0.0000000e+0 -1.00000000
vn -2.1044016e-15 0.0000000e+0 -1.00000000
vn -2.1044016e-15 0.0000000e+0 -1.00000000
vn 0.86602540 0.50000000 -1.4446892e-18
vn 0.86602540 -0.50000000 1.4446892e-18
vn 1.4941820e-15 0.0000000e+0 -1.00000000
vn 9.7387985e-17 -1.00000000 0.0000000e+0
vn 0.86602540 -0.50000000 2.8893784e-18
vn 1.4941820e-15 0.0000000e+0 -1.00000000
vn 2.9883640e-15 0.0000000e+0 -1.00000000
vn -0.86602540 -0.50000000 2.8893784e-18
vn 9.7387985e-17 -1.00000000 5.7787569e-18
vn 9.7387985e-17 -1.00000000 5.7787569e-18
vn -0.86602540 -0.50000000 2.8893784e-18
vn 9.9612132e-16 0.0000000e+0 -1.00000000
vn -0.86602540 0.50000000 -2.8893784e-18
vn -0.86602540 -0.50000000 2.8893784e-18
vn 9.9612132e-16 0.0000000e+0 -1.00000000
vn 9.9612132e-16 0.0000000e+0 -1.00000000
vn -5.3563392e-16 1.00000000 -1.1557514e-17
vn -0.86602540 0.50000000 -4.3340677e-18
vn -3.1566023e-15 0.0000000e+0 -1.00000000
vn -3.1566023e-15 0.0000000e+0 -1.00000000
vn -0.86602540 0.50000000 -4.3340677e-18
vn -5.3563392e-16 1.00000000 -1.1557514e-17
vn 0.86602540 0.50000000 -2.8893784e-18
vn -5.8432791e-16 1.00000000 0.0000000e+0
vn -6.3132047e-15 0.0000000e+0 -1.00000000
vn 0.83931434 0.48457836 0.24644523
vn -0.83931434 -0.48457836 0.24644523
vn 0.83931434 0.48457836 0.24644523
vn 0.83931434 0.48457836 0.24644523
vn -0.83931434 -0.48457836 0.24644523
vn -0.83931434 -0.48457836 0.24644523
vn -0.98137433 -8.2943094e-16 0.19210524
vn -0.98137433 -2.2330833e-16 0.19210524
vn -0.98137433 -2.2330833e-16 0.19210524
vn -0.98137433 -8.2943094e-16 0.19210524
vn -0.49068717 -0.84989510 0.19210524
vn -0.49068717 -0.84989510 0.19210524
vn -0.49068717 -0.84989510 0.19210524
vn -0.49068717 -0.84989510 0.19210524
vn -0.49068717 -0.84989510 0.19210524
vn -0.49068717 -0.84989510 0.19210524
vn 0.98137433 4.4661666e-16 0.19210524
vn 0.98137433 -4.4661666e-16 0.19210524
vn 0.98137433 -4.4661666e-16 0.19210524
vn 0.98137433 4.4661666e-16 0.19210524
vn 0.98137433 -4.4661666e-16 0.19210524
vn 0.98137433 -4.4661666e-16 0.19210524
vn 0.49068717 0.84989510 0.19210524
vn 0.49068717 0.84989510 0.19210524
vn 0.49068717 0.84989510 0.19210524
vn 0.49068717 0.84989510 0.19210524
vn -0.85384305 0.49296652 0.16714083
vn -0.49068717 0.84989510 0.19210524
vn -0.49068717 0.84989510 0.19210524
vn -2.1103886e-15 0.98593303 0.16714083
vn -0.49068717 0.84989510 0.19210524
vn -0.49068717 0.84989510 0.19210524
vn 0.85384305 -0.49296652 0.16714083
vn 0.49068717 -0.84989510 0.19210524
vn 0.49068717 -0.84989510 0.19210524
vn 0.0000000e+0 -0.98593303 0.16714083
g Cylinder1_default
usemtl default
s 1
f 1//1 7//42 6//33
f 2//5 9//50 8//45
f 3//13 9//51 2//10
f 4//17 11//59 10//54
f 5//25 11//62 4//22
f 6//29 7//37 12//64
f 13//72 14//76 15//80
f 15//79 19//102 13//71
f 18//93 14//73 13//68
s 2
f 2//9 7//43 1//2
f 4//21 9//52 3//14
f 6//35 11//63 5//28
f 8//46 7//38 2//6
f 10//55 9//49 4//18
f 12//65 11//58 6//30
f 13//70 16//86 17//92
f 13//69 17//91 18//96
f 13//67 19//99 16//83
s 3
f 1//3 16//87 2//12
f 2//11 15//82 3//16
f 2//8 16//85 19//101
f 3//15 15//81 4//24
f 4//19 15//78 14//74
f 4//23 18//97 5//26
f 5//27 18//98 6//34
f 6//36 16//88 1//4
f 6//31 18//94 17//89
f 7//41 11//61 12//66
f 8//47 10//57 7//40
f 9//48 10//53 8//44
f 11//60 7//39 10//56
f 14//75 18//95 4//20
f 17//90 16//84 6//32
f 19//100 15//77 2//7
